<svg xmlns="http://www.w3.org/2000/svg" width="512" height="512" viewBox="0 0 512 512" version="1.1"><path d="M 171.246 256.178 L 171.500 377.500 213 377.807 C 273.834 378.257, 285.969 376.650, 309.500 365.029 C 323.695 358.018, 331.683 352.168, 342.626 340.770 C 365.231 317.224, 376.394 289.505, 376.363 257 C 376.349 241.471, 375.367 234.427, 371.349 221 C 360.291 184.052, 330.374 152.964, 294.500 141.144 C 278.412 135.844, 276.826 135.715, 222.246 135.272 L 170.992 134.856 171.246 256.178 M 220 255.887 L 220 329 239.869 329 C 262.068 329, 272.640 327.636, 283 323.435 C 300.907 316.173, 316.131 300.927, 323.460 282.916 C 326.168 276.261, 329 262.501, 329 256 C 329 249.499, 326.168 235.739, 323.460 229.084 C 314.885 208.012, 296.590 191.812, 274.112 185.386 C 269.945 184.195, 262.255 183.652, 244.250 183.278 L 220 182.773 220 255.887" stroke="none" fill="#fbfbfb" fill-rule="evenodd"/><path d="M 61.055 146.679 C 27.432 206.453, 0.052 255.886, 0.211 256.531 C 0.370 257.176, 28.599 306.371, 62.943 365.852 L 125.386 474 258.019 474 L 390.652 474 448.018 371.250 C 479.569 314.737, 507.097 265.642, 509.192 262.148 C 512.757 256.201, 514.107 252.198, 512.137 253.415 C 511.663 253.708, 483.947 205.360, 450.546 145.974 L 389.816 38 256.002 38 L 122.188 38 61.055 146.679 M 171.246 256.178 L 171.500 377.500 213 377.807 C 273.834 378.257, 285.969 376.650, 309.500 365.029 C 323.695 358.018, 331.683 352.168, 342.626 340.770 C 365.231 317.224, 376.394 289.505, 376.363 257 C 376.349 241.471, 375.367 234.427, 371.349 221 C 360.291 184.052, 330.374 152.964, 294.500 141.144 C 278.412 135.844, 276.826 135.715, 222.246 135.272 L 170.992 134.856 171.246 256.178 M 220 255.887 L 220 329 239.869 329 C 262.068 329, 272.640 327.636, 283 323.435 C 300.907 316.173, 316.131 300.927, 323.460 282.916 C 326.168 276.261, 329 262.501, 329 256 C 329 249.499, 326.168 235.739, 323.460 229.084 C 314.885 208.012, 296.590 191.812, 274.112 185.386 C 269.945 184.195, 262.255 183.652, 244.250 183.278 L 220 182.773 220 255.887" stroke="none" fill="#04549c" fill-rule="evenodd"/></svg>