<?xml version="1.0" standalone="no"?>
<!DOCTYPE svg PUBLIC "-//W3C//DTD SVG 20010904//EN"
 "http://www.w3.org/TR/2001/REC-SVG-20010904/DTD/svg10.dtd">
<svg version="1.0" xmlns="http://www.w3.org/2000/svg"
 width="512.000000pt" height="512.000000pt" viewBox="0 0 512.000000 512.000000"
 preserveAspectRatio="xMidYMid meet">

<g transform="translate(0.000000,512.000000) scale(0.100000,-0.100000)"
fill="#000000" stroke="none">
<path d="M612 3645 l-610 -1085 626 -1085 627 -1085 1325 0 1325 0 607 1085
606 1085 -610 1085 -610 1085 -1338 0 -1338 0 -610 -1085z m2141 110 c388 -58
722 -310 897 -678 356 -745 -124 -1626 -940 -1727 -47 -5 -286 -10 -542 -10
l-458 0 0 1215 0 1215 473 0 c365 0 494 -3 570 -15z"/>
<path d="M2200 2560 l0 -732 233 5 c262 5 334 18 456 82 247 130 393 369 393
645 0 276 -146 515 -393 645 -122 64 -194 77 -456 82 l-233 5 0 -732z"/>
</g>
</svg>
