<svg xmlns="http://www.w3.org/2000/svg" width="512" height="512" viewBox="0 0 512 512" version="1.1"><path d="M 470.706 146.948 C 469.520 153.602, 464.689 162.923, 459.764 168.063 C 457.359 170.573, 437.528 185.128, 415.696 200.407 L 376 228.188 376 326.140 L 376 424.092 412.750 423.796 L 449.500 423.500 454.500 420.836 C 460.493 417.644, 465.934 412.131, 469.144 406 L 471.500 401.500 471.767 302.500 C 472.088 183.484, 471.797 140.835, 470.706 146.948" stroke="none" fill="#00ac47" fill-rule="evenodd"/><path d="M 40.352 272 L 40.500 401.500 42.856 406 C 46.066 412.131, 51.507 417.644, 57.500 420.836 L 62.500 423.500 99.250 423.796 L 136 424.092 136 326.140 L 136 228.188 96.304 200.407 C 74.472 185.128, 54.648 170.581, 52.252 168.080 C 47.307 162.919, 42.401 153.653, 41.090 147 C 40.560 144.306, 40.263 194.461, 40.352 272" stroke="none" fill="#4285f4" fill-rule="evenodd"/><path d="M 75 89.882 C 57.452 95.545, 45.826 107.551, 41.518 124.460 C 37.428 140.514, 42.042 157.975, 53.278 168.967 C 56.150 171.777, 75.825 186.173, 97 200.959 L 135.500 227.842 135.764 179.671 C 135.933 148.957, 135.649 129.665, 134.982 126.435 C 132.500 114.426, 122.498 100.309, 112.190 94.266 C 102.214 88.418, 85.605 86.460, 75 89.882" stroke="none" fill="#c52528" fill-rule="evenodd"/><path d="M 122.134 102.676 C 125.232 105.939, 128.949 110.939, 130.392 113.787 C 135.820 124.499, 136 126.532, 136 177.137 L 136 223.854 200.593 264.967 L 265.186 306.079 267.936 304.289 C 269.448 303.305, 294.362 285.910, 323.301 265.634 L 375.917 228.767 376.208 176.634 C 376.500 124.577, 376.503 124.491, 378.847 118.684 C 380.137 115.485, 383.393 109.998, 386.080 106.491 L 390.967 100.115 356.234 124.393 C 337.130 137.745, 308.295 157.927, 292.155 169.242 L 262.810 189.814 246.655 179.577 C 232.890 170.855, 175.131 134.101, 129.500 105.027 L 116.500 96.745 122.134 102.676" stroke="none" fill="#ea4435" fill-rule="evenodd"/><path d="M 411 89.855 C 401.545 92.544, 395.200 96.309, 389.215 102.783 C 383.151 109.341, 378.608 117.744, 377.050 125.281 C 376.342 128.707, 376.062 147.217, 376.236 179.171 L 376.500 227.842 415 200.959 C 436.175 186.173, 455.859 171.768, 458.742 168.948 C 470.175 157.762, 474.606 140.063, 470.137 123.432 C 466.070 108.299, 455.464 96.800, 440.105 90.872 C 432.274 87.849, 419.609 87.407, 411 89.855" stroke="none" fill="#ffba00" fill-rule="evenodd"/></svg>