<?xml version="1.0" standalone="no"?>
<!DOCTYPE svg PUBLIC "-//W3C//DTD SVG 20010904//EN"
 "http://www.w3.org/TR/2001/REC-SVG-20010904/DTD/svg10.dtd">
<svg version="1.0" xmlns="http://www.w3.org/2000/svg"
 width="512.000000pt" height="512.000000pt" viewBox="0 0 512.000000 512.000000"
 preserveAspectRatio="xMidYMid meet">

<g transform="translate(0.000000,512.000000) scale(0.100000,-0.100000)"
fill="#000000" stroke="none">
<path d="M2498 4068 l-914 -813 53 -3 53 -3 0 -1034 0 -1035 -345 0 -345 0 -1
573 c-1 314 -4 661 -8 770 l-6 198 -377 -336 -378 -335 0 -693 c0 -405 5 -721
10 -761 13 -88 48 -157 112 -222 60 -62 131 -99 219 -114 45 -8 634 -10 2029
-8 1856 3 1968 4 2010 21 110 43 199 130 244 240 l21 52 3 1955 c2 1398 0
1974 -8 2020 -30 173 -164 305 -337 330 -38 5 -305 10 -595 10 l-527 0 -913
-812z m1080 -793 c247 -59 432 -231 520 -485 60 -171 62 -206 62 -942 l0 -668
-345 0 -345 0 0 593 c0 607 -4 672 -41 772 -91 245 -432 274 -595 52 -76 -103
-74 -82 -74 -789 l0 -628 -350 0 -350 0 0 1035 0 1035 351 0 350 0 -3 -141 -3
-141 24 34 c47 63 166 174 221 205 66 37 162 71 239 83 75 12 261 4 339 -15z"/>
</g>
</svg>
