<svg xmlns="http://www.w3.org/2000/svg" width="512" height="512" viewBox="0 0 512 512" version="1.1"><path d="M 123.618 89.050 C 117.621 90.554, 108.264 95.935, 104.816 99.862 C 97.176 108.564, 94.177 122.218, 97.441 133.444 C 100.522 144.042, 106.608 151.046, 116.954 155.899 C 121.962 158.248, 123.664 158.500, 134.500 158.500 C 145.404 158.500, 147.018 158.257, 152.175 155.840 C 159.765 152.282, 166.355 146.013, 169.730 139.142 C 172.168 134.176, 172.500 132.358, 172.500 123.979 C 172.500 115.236, 172.231 113.912, 169.213 107.782 C 162.957 95.074, 152.764 89.041, 136.500 88.419 C 131.550 88.230, 125.753 88.514, 123.618 89.050 M 317.112 185.045 C 299.875 189.559, 288.984 197.463, 276.526 214.500 C 275.218 216.289, 275.060 214.943, 275.032 201.750 L 275 187 241 187 L 207 187 207 290.500 L 207 394 240.958 394 L 274.917 394 275.208 330.250 L 275.500 266.500 278.685 259.777 C 282.727 251.245, 289.670 243.800, 296.874 240.274 C 301.873 237.827, 303.622 237.519, 312.565 237.510 C 321.801 237.501, 323.117 237.749, 328.537 240.518 C 335.778 244.218, 341.120 250.836, 344.261 260 C 346.461 266.417, 346.493 267.313, 346.780 330.250 L 347.070 394 381.591 394 L 416.112 394 415.738 324.750 C 415.382 258.989, 415.259 255.047, 413.290 246.500 C 405.241 211.559, 385.987 190.829, 355.790 184.592 C 344.918 182.346, 326.598 182.561, 317.112 185.045 M 100 290.487 L 100 394 134.505 394 L 169.009 394 168.755 290.750 L 168.500 187.500 134.250 187.237 L 100 186.974 100 290.487" stroke="none" fill="#fafbfb" fill-rule="evenodd"/><path d="M 51.500 25.397 C 40.300 28.962, 31.523 36.571, 26.582 46.997 L 23.500 53.500 23.500 255.500 L 23.500 457.500 26.582 464.003 C 30.530 472.333, 37.667 479.470, 45.997 483.418 L 52.500 486.500 255.500 486.500 L 458.500 486.500 465.003 483.418 C 473.333 479.470, 480.470 472.333, 484.418 464.003 L 487.500 457.500 487.500 255.500 L 487.500 53.500 484.418 46.997 C 480.470 38.667, 473.333 31.530, 465.003 27.582 L 458.500 24.500 257 24.312 C 96.177 24.162, 54.693 24.381, 51.500 25.397 M 123.618 89.050 C 117.621 90.554, 108.264 95.935, 104.816 99.862 C 97.176 108.564, 94.177 122.218, 97.441 133.444 C 100.522 144.042, 106.608 151.046, 116.954 155.899 C 121.962 158.248, 123.664 158.500, 134.500 158.500 C 145.404 158.500, 147.018 158.257, 152.175 155.840 C 159.765 152.282, 166.355 146.013, 169.730 139.142 C 172.168 134.176, 172.500 132.358, 172.500 123.979 C 172.500 115.236, 172.231 113.912, 169.213 107.782 C 162.957 95.074, 152.764 89.041, 136.500 88.419 C 131.550 88.230, 125.753 88.514, 123.618 89.050 M 317.112 185.045 C 299.875 189.559, 288.984 197.463, 276.526 214.500 C 275.218 216.289, 275.060 214.943, 275.032 201.750 L 275 187 241 187 L 207 187 207 290.500 L 207 394 240.958 394 L 274.917 394 275.208 330.250 L 275.500 266.500 278.685 259.777 C 282.727 251.245, 289.670 243.800, 296.874 240.274 C 301.873 237.827, 303.622 237.519, 312.565 237.510 C 321.801 237.501, 323.117 237.749, 328.537 240.518 C 335.778 244.218, 341.120 250.836, 344.261 260 C 346.461 266.417, 346.493 267.313, 346.780 330.250 L 347.070 394 381.591 394 L 416.112 394 415.738 324.750 C 415.382 258.989, 415.259 255.047, 413.290 246.500 C 405.241 211.559, 385.987 190.829, 355.790 184.592 C 344.918 182.346, 326.598 182.561, 317.112 185.045 M 100 290.487 L 100 394 134.505 394 L 169.009 394 168.755 290.750 L 168.500 187.500 134.250 187.237 L 100 186.974 100 290.487" stroke="none" fill="#1589c9" fill-rule="evenodd"/></svg>