<svg xmlns="http://www.w3.org/2000/svg" width="512" height="512" viewBox="0 0 512 512" version="1.1"><path d="M 195.500 124.676 C 172.897 127.508, 143.613 138.489, 122.673 151.985 L 114.847 157.029 109.374 168.543 C 86.332 217.019, 71.791 275.339, 69.370 328.987 L 68.700 343.824 72.338 348.779 C 74.339 351.505, 79.098 356.680, 82.914 360.280 C 102.298 378.566, 127.392 389.151, 157.042 391.550 L 165.585 392.241 176.865 380.188 C 183.069 373.559, 188.011 367.768, 187.847 367.318 C 187.683 366.868, 183.938 365.141, 179.524 363.479 C 164.584 357.854, 148.363 347.050, 139.629 336.906 C 133.226 329.469, 133.658 328.841, 141.236 334.571 C 160.707 349.297, 194.371 360.560, 229.393 364.067 C 246.410 365.771, 286.082 364.702, 300.500 362.152 C 329.656 356.996, 350.932 349.558, 368.163 338.501 C 372.198 335.912, 376.738 332.630, 378.250 331.209 C 382.476 327.239, 381.525 329.266, 376.104 335.779 C 366.525 347.289, 350.104 358.294, 333.811 364.122 L 325.056 367.254 335.409 379.377 L 345.762 391.500 354.131 391.264 C 375.081 390.671, 398.246 383.057, 416.212 370.856 C 423.756 365.733, 434.959 355.186, 439.662 348.779 L 443.300 343.824 442.617 328.693 C 440.220 275.582, 425.517 216.701, 402.626 168.543 L 397.153 157.029 389.327 151.985 C 366.972 137.577, 337.085 126.730, 313.500 124.463 C 307.197 123.858, 306.311 123.998, 304.614 125.875 C 303.112 127.534, 303.010 128.059, 304.114 128.453 C 304.876 128.724, 309.325 130.136, 314 131.589 C 334.125 137.843, 358.561 149.222, 374.750 159.876 C 379.837 163.224, 384 166.153, 384 166.384 C 384 166.616, 380.512 164.816, 376.250 162.385 C 356.878 151.334, 327.056 142.753, 294.500 138.861 C 279.930 137.119, 235.814 137.108, 221.500 138.843 C 185.271 143.233, 155.036 152.354, 131.029 166.136 L 127.500 168.162 131 165.009 C 143.845 153.436, 175.123 137.798, 200.851 130.085 C 208.021 127.935, 208.159 127.833, 206.446 125.940 C 204.729 124.043, 202.555 123.792, 195.500 124.676 M 188.500 244.872 C 177.238 247.849, 167.960 257.177, 164.568 268.932 C 158.542 289.810, 172.234 311.487, 192.807 313.638 C 211.757 315.618, 229 299.116, 229 279 C 229 269.283, 223.039 256.362, 216.235 251.332 C 208.222 245.408, 196.661 242.715, 188.500 244.872 M 304.500 244.872 C 293.238 247.849, 283.960 257.177, 280.568 268.932 C 274.542 289.810, 288.234 311.487, 308.807 313.638 C 327.757 315.618, 345 299.116, 345 279 C 345 269.283, 339.039 256.362, 332.235 251.332 C 324.222 245.408, 312.661 242.715, 304.500 244.872" stroke="none" fill="#fbfbfb" fill-rule="evenodd"/><path d="M 58.468 1.877 C 30.673 8.716, 9.242 30.180, 2.023 58.410 C 0.027 66.213, 0 68.878, 0 256 C -0 443.122, 0.027 445.787, 2.023 453.590 C 9.288 482, 30 502.712, 58.410 509.977 C 66.213 511.973, 68.878 512, 256 512 C 443.122 512, 445.787 511.973, 453.590 509.977 C 481.367 502.873, 502.785 481.886, 509.486 455.206 C 510.412 451.518, 511.582 447.719, 512.085 446.764 C 513.139 444.763, 513.379 63.288, 512.325 64.342 C 511.954 64.713, 510.823 61.760, 509.812 57.779 C 502.769 30.044, 481.784 9.233, 453.590 2.023 C 445.781 0.026, 443.247 0.001, 255.590 0.074 C 78.910 0.142, 65.004 0.269, 58.468 1.877 M 0.490 256 C 0.490 361.325, 0.607 404.413, 0.750 351.750 C 0.893 299.087, 0.893 212.912, 0.750 160.250 C 0.607 107.588, 0.490 150.675, 0.490 256 M 195.500 124.676 C 172.897 127.508, 143.613 138.489, 122.673 151.985 L 114.847 157.029 109.374 168.543 C 86.332 217.019, 71.791 275.339, 69.370 328.987 L 68.700 343.824 72.338 348.779 C 74.339 351.505, 79.098 356.680, 82.914 360.280 C 102.298 378.566, 127.392 389.151, 157.042 391.550 L 165.585 392.241 176.865 380.188 C 183.069 373.559, 188.011 367.768, 187.847 367.318 C 187.683 366.868, 183.938 365.141, 179.524 363.479 C 164.584 357.854, 148.363 347.050, 139.629 336.906 C 133.226 329.469, 133.658 328.841, 141.236 334.571 C 160.707 349.297, 194.371 360.560, 229.393 364.067 C 246.410 365.771, 286.082 364.702, 300.500 362.152 C 329.656 356.996, 350.932 349.558, 368.163 338.501 C 372.198 335.912, 376.738 332.630, 378.250 331.209 C 382.476 327.239, 381.525 329.266, 376.104 335.779 C 366.525 347.289, 350.104 358.294, 333.811 364.122 L 325.056 367.254 335.409 379.377 L 345.762 391.500 354.131 391.264 C 375.081 390.671, 398.246 383.057, 416.212 370.856 C 423.756 365.733, 434.959 355.186, 439.662 348.779 L 443.300 343.824 442.617 328.693 C 440.220 275.582, 425.517 216.701, 402.626 168.543 L 397.153 157.029 389.327 151.985 C 366.972 137.577, 337.085 126.730, 313.500 124.463 C 307.197 123.858, 306.311 123.998, 304.614 125.875 C 303.112 127.534, 303.010 128.059, 304.114 128.453 C 304.876 128.724, 309.325 130.136, 314 131.589 C 334.125 137.843, 358.561 149.222, 374.750 159.876 C 379.837 163.224, 384 166.153, 384 166.384 C 384 166.616, 380.512 164.816, 376.250 162.385 C 356.878 151.334, 327.056 142.753, 294.500 138.861 C 279.930 137.119, 235.814 137.108, 221.500 138.843 C 185.271 143.233, 155.036 152.354, 131.029 166.136 L 127.500 168.162 131 165.009 C 143.845 153.436, 175.123 137.798, 200.851 130.085 C 208.021 127.935, 208.159 127.833, 206.446 125.940 C 204.729 124.043, 202.555 123.792, 195.500 124.676 M 188.500 244.872 C 177.238 247.849, 167.960 257.177, 164.568 268.932 C 158.542 289.810, 172.234 311.487, 192.807 313.638 C 211.757 315.618, 229 299.116, 229 279 C 229 269.283, 223.039 256.362, 216.235 251.332 C 208.222 245.408, 196.661 242.715, 188.500 244.872 M 304.500 244.872 C 293.238 247.849, 283.960 257.177, 280.568 268.932 C 274.542 289.810, 288.234 311.487, 308.807 313.638 C 327.757 315.618, 345 299.116, 345 279 C 345 269.283, 339.039 256.362, 332.235 251.332 C 324.222 245.408, 312.661 242.715, 304.500 244.872" stroke="none" fill="#748cdc" fill-rule="evenodd"/></svg>